# File created by Blade
# Date/Time:  Tue Sep 30 19:11:40 2014
#---------------------------------------------------------
:version 1.10
:name HOM
:units
  mass 1.0
  length 1.000000
  angle deg
:documentation
     Acclaim Skeleton File
:root
   axis xyz
   order TX TY TZ RX RY RZ
   position 0.000000 0.000000 0.000000
   orientation 0 0 0
:bonedata
   begin
      id 1
      name Spine_dum
      direction 0.000000 1.000000 0.000000
      length 7.508948
      axis 0.0 0.0 0.0 xyz
   end
   begin
      id 2
      name LeftUpLeg_dum
      direction 1.000000 0.000000 0.000000
      length 3.000560
      axis 0.0 0.0 0.0 xyz
   end
   begin
      id 3
      name RightUpLeg_dum
      direction -1.000000 0.000000 0.000000
      length 3.000560
      axis 0.0 0.0 0.0 xyz
   end
   begin
      id 4
      name Spine
      direction 0.000000 1.000000 0.000000
      length 0.000000
      axis 0.0 0.0 0.0 xyz
      dof rx ry rz
   end
   begin
      id 5
      name Spine_dum1
      direction 0.000000 1.000000 0.000000
      length 13.861154
      axis 0.0 0.0 0.0 xyz
   end
   begin
      id 6
      name Spine_dum2
      direction 0.000000 1.000000 0.000000
      length 8.204781
      axis 0.0 0.0 0.0 xyz
   end
   begin
      id 7
      name Spine_dum3
      direction 0.000000 1.000000 0.000000
      length 8.204781
      axis 0.0 0.0 0.0 xyz
   end
   begin
      id 8
      name Head
      direction 0.000000 1.000000 0.000000
      length 4.527550
      axis 0.0 0.0 0.0 xyz
      dof rx ry rz
   end
   begin
      id 9
      name LeftShoulder
      direction 1.000000 0.000000 0.000000
      length 6.635956
      axis 0.0 0.0 -90.0 xyz
      dof rx ry rz
   end
   begin
      id 10
      name LeftArm
      direction 1.000000 0.000000 0.000000
      length 10.274218
      axis 0.0 0.0 -90.0 xyz
      dof rx ry rz
   end
   begin
      id 11
      name LeftForeArm
      direction 1.000000 0.000000 0.000000
      length 8.522147
      axis 0.0 0.0 -90.0 xyz
      dof ry rz rx
   end
   begin
      id 12
      name LeftHand
      direction 0.000000 0.000000 0.000000
      length 0.000000
      axis 0.0 0.0 -90.0 xyz
      dof rx ry rz
   end
   begin
      id 13
      name LeftHand_dum1
      direction 0.000000 0.000000 0.000000
      length 0.000000
      axis 0.0 0.0 -90.0 xyz
   end
   begin
      id 14
      name LeftHand_dum2
      direction 1.000000 0.000000 0.000000
      length 3.937000
      axis 0.0 0.0 -90.0 xyz
   end
   begin
      id 15
      name LeftHandThumb1
      direction 0.000000 0.000000 1.000000
      length 3.937000
      axis 0.0 0.0 -90.0 xyz
      dof rx rz ry
   end
   begin
      id 16
      name RightShoulder
      direction -1.000000 0.000000 0.000000
      length 6.635956
      axis 0.0 0.0 90.0 xyz
      dof rx ry rz
   end
   begin
      id 17
      name RightArm
      direction -1.000000 0.000000 0.000000
      length 10.274218
      axis 0.0 0.0 90.0 xyz
      dof rx ry rz
   end
   begin
      id 18
      name RightForeArm
      direction -1.000000 0.000000 0.000000
      length 8.522147
      axis 0.0 0.0 90.0 xyz
      dof ry rz rx
   end
   begin
      id 19
      name RightHand
      direction 0.000000 0.000000 0.000000
      length 0.000000
      axis 0.0 0.0 90.0 xyz
      dof rx ry rz
   end
   begin
      id 20
      name RightHand_dum1
      direction 0.000000 0.000000 0.000000
      length 0.000000
      axis 0.0 0.0 90.0 xyz
   end
   begin
      id 21
      name RightHand_dum2
      direction -1.000000 0.000000 0.000000
      length 3.937000
      axis 0.0 0.0 90.0 xyz
   end
   begin
      id 22
      name RightHandThumb1
      direction 0.000000 0.000000 1.000000
      length 3.937000
      axis 0.0 0.0 90.0 xyz
      dof rx rz ry
   end
   begin
      id 23
      name LeftUpLeg
      direction 0.000000 -1.000000 0.000000
      length 16.490845
      axis 0.0 0.0 0.0 xyz
      dof rx ry rz
   end
   begin
      id 24
      name LeftLeg
      direction 0.000000 -1.000000 0.000000
      length 14.556576
      axis 0.0 0.0 0.0 xyz
      dof rx ry rz
   end
   begin
      id 25
      name LeftFoot
      direction 0.000000 -0.258819 0.965926
      length 4.831116
      axis 15.0 0.0 0.0 xyz
      dof rx ry rz
   end
   begin
      id 26
      name LeftToeBase
      direction 0.000000 0.000000 1.000000
      length 2.952750
      axis 0.0 0.0 0.0 xyz
      dof rx ry rz
   end
   begin
      id 27
      name RightUpLeg
      direction 0.000000 -1.000000 0.000000
      length 16.490845
      axis 0.0 0.0 0.0 xyz
      dof rx ry rz
   end
   begin
      id 28
      name RightLeg
      direction 0.000000 -1.000000 0.000000
      length 14.556576
      axis 0.0 0.0 0.0 xyz
      dof rx ry rz
   end
   begin
      id 29
      name RightFoot
      direction 0.000000 -0.258819 0.965926
      length 4.831116
      axis 15.0 0.0 0.0 xyz
      dof rx ry rz
   end
   begin
      id 30
      name RightToeBase
      direction 0.000000 0.000000 1.000000
      length 2.952750
      axis 0.0 0.0 0.0 xyz
      dof rx ry rz
   end
:hierarchy
   begin
      root Spine_dum LeftUpLeg_dum RightUpLeg_dum
      Spine_dum Spine
      LeftUpLeg_dum LeftUpLeg
      RightUpLeg_dum RightUpLeg
      Spine Spine_dum1 Spine_dum2 Spine_dum3
      Spine_dum1 Head
      Spine_dum2 LeftShoulder
      Spine_dum3 RightShoulder
      LeftShoulder LeftArm
      LeftArm LeftForeArm
      LeftForeArm LeftHand
      LeftHand LeftHand_dum1 LeftHand_dum2
      LeftHand_dum1 LeftHandThumb1
      RightShoulder RightArm
      RightArm RightForeArm
      RightForeArm RightHand
      RightHand RightHand_dum1 RightHand_dum2
      RightHand_dum1 RightHandThumb1
      LeftUpLeg LeftLeg
      LeftLeg LeftFoot
      LeftFoot LeftToeBase
      RightUpLeg RightLeg
      RightLeg RightFoot
      RightFoot RightToeBase
   end

# File created by Blade
# Date/Time:  Thu Sep 25 15:41:58 2014
# Frame Rate: 120.000 fps
#------------------------------------------------------
:FULLY-SPECIFIED
:DEGREES
1
root -2.855476 32.878303 -3.672105 13.017885 -2.873455 -1.890682
Spine -11.583433 6.374844 1.587654
Head -12.573022 -4.886847 7.771477
LeftShoulder -11.462548 27.612873 27.006453
LeftArm 23.662987 -24.582429 -34.779956
LeftForeArm 7.493528 -0.000000 14.039684
LeftHand -31.500447 0.000000 2.944686
LeftHandThumb1 -26.253704 0.000000 33.147579
RightShoulder -15.533907 10.466368 -38.061971
RightArm -8.255237 9.742920 34.538310
RightForeArm -28.409710 -0.000000 17.539037
RightHand -10.485902 -0.000000 7.565337
RightHandThumb1 -24.326973 -0.000000 -32.862282
LeftUpLeg -8.092385 8.361394 2.897118
LeftLeg 0.749340 -0.000000 -0.000000
LeftFoot -11.824328 6.735747 -20.019936
LeftToeBase 5.623670 -0.000000 -0.000000
RightUpLeg -10.516920 -2.929196 1.520603
RightLeg 5.741625 -0.000000 -0.000000
RightFoot -10.786603 -0.473337 -5.696247
RightToeBase -0.634898 -0.000000 0.000000
2
root -2.875167 32.879118 -3.668820 13.035880 -2.934503 -1.892143
Spine -11.555037 6.338761 1.611496
Head -12.468676 -4.975247 7.898272
LeftShoulder -11.474249 27.465139 26.901651
LeftArm 23.607973 -24.494036 -34.711357
LeftForeArm 7.376855 -0.000000 14.053320
LeftHand -31.550353 0.000000 2.811856
LeftHandThumb1 -26.253704 0.000000 33.147579
RightShoulder -15.557666 10.397133 -37.990251
RightArm -8.221634 9.757840 34.549747
RightForeArm -28.335911 -0.000000 17.588572
RightHand -10.512143 -0.000000 7.582332
RightHandThumb1 -24.326973 -0.000000 -32.862282
LeftUpLeg -8.073307 8.390399 2.924028
LeftLeg 0.709703 -0.000000 -0.000000
LeftFoot -11.809236 6.778047 -20.056422
LeftToeBase 5.649122 -0.000000 -0.000000
RightUpLeg -10.542459 -2.790101 1.518836
RightLeg 5.785947 -0.000000 -0.000000
RightFoot -10.826801 -0.513453 -5.644599
RightToeBase -0.545958 -0.000000 0.000000
3
root -2.897671 32.878143 -3.664871 13.067894 -2.992330 -1.895698
Spine -11.542880 6.293531 1.642127
Head -12.414080 -5.050587 7.934625
LeftShoulder -11.524608 27.522242 26.800519
LeftArm 23.778788 -24.624728 -34.877836
LeftForeArm 7.155793 -0.000000 14.040440
LeftHand -31.479631 -0.000000 3.224649
LeftHandThumb1 -26.253704 0.000000 33.147579
RightShoulder -15.573358 10.365771 -37.966678
RightArm -8.268484 9.811138 34.598714
RightForeArm -28.339641 -0.000000 17.674684
RightHand -10.426982 -0.000000 7.441734
RightHandThumb1 -24.326973 -0.000000 -32.862282
LeftUpLeg -8.071320 8.406525 2.960347
LeftLeg 0.677615 -0.000000 -0.000000
LeftFoot -11.810949 6.807038 -20.133298
LeftToeBase 5.650569 -0.000000 -0.000000
RightUpLeg -10.575775 -2.702370 1.549592
RightLeg 5.785425 -0.000000 -0.000000
RightFoot -10.812922 -0.500115 -5.689897
RightToeBase -0.621801 -0.000000 0.000000
4
root -2.918661 32.876916 -3.663080 13.101701 -3.036515 -1.886746
Spine -11.531082 6.231806 1.655857
Head -12.330538 -5.194487 8.042550
LeftShoulder -11.570914 27.535619 26.670545
LeftArm 23.889586 -24.723410 -34.959089
LeftForeArm 6.932537 -0.000000 14.109532
LeftHand -31.515662 -0.000000 3.444853
LeftHandThumb1 -26.253704 0.000000 33.147579
RightShoulder -15.581608 10.354795 -37.909395
RightArm -8.313237 9.823491 34.619912
RightForeArm -28.361375 0.000000 17.716260
RightHand -10.234354 -0.000000 7.373590
RightHandThumb1 -24.326973 -0.000000 -32.862282
LeftUpLeg -8.084041 8.385094 2.982630
LeftLeg 0.663777 -0.000000 -0.000000
LeftFoot -11.828926 6.880875 -20.184901
LeftToeBase 5.598102 -0.000000 -0.000000
RightUpLeg -10.621763 -2.563973 1.555900
RightLeg 5.817565 -0.000000 -0.000000
RightFoot -10.831663 -0.584583 -5.751793
RightToeBase -0.596138 -0.000000 0.000000
5
root -2.941331 32.876259 -3.657691 13.111898 -3.147998 -1.892183
Spine -11.497570 6.221772 1.671690
Head -12.234555 -5.369744 8.156918
LeftShoulder -11.553273 27.398662 26.598671
LeftArm 23.826885 -24.739041 -35.061044
LeftForeArm 6.847910 -0.000000 14.258075
LeftHand -31.492480 0.000000 3.569073
LeftHandThumb1 -26.253704 0.000000 33.147579
RightShoulder -15.562911 10.328216 -37.822559
RightArm -8.372206 9.866260 34.633069
RightForeArm -28.467826 0.000000 17.834533
RightHand -10.319538 -0.000000 7.359019
RightHandThumb1 -24.326973 -0.000000 -32.862282
LeftUpLeg -8.039581 8.423909 3.015580
LeftLeg 0.613700 -0.000000 -0.000000
LeftFoot -11.828090 6.955812 -20.225592
LeftToeBase 5.585052 -0.000000 -0.000000
RightUpLeg -10.644312 -2.379843 1.562948
RightLeg 5.852303 -0.000000 -0.000000
RightFoot -10.840885 -0.640690 -5.778923
RightToeBase -0.626972 -0.000000 0.000000
6
root -2.963909 32.875528 -3.654315 13.151244 -3.208689 -1.897803
Spine -11.489012 6.177077 1.712198
Head -12.129053 -5.577181 8.271164
LeftShoulder -11.596848 27.337036 26.436690
LeftArm 23.940878 -24.790311 -35.160876
LeftForeArm 6.642224 0.000000 14.284594
LeftHand -31.484209 -0.000000 3.920997
LeftHandThumb1 -26.253704 0.000000 33.147579
RightShoulder -15.583560 10.336150 -37.739936
RightArm -8.471921 9.468852 34.637568
RightForeArm -28.119691 -0.000000 18.017327
RightHand -10.309802 -0.000000 7.255887
RightHandThumb1 -24.326973 -0.000000 -32.862282
LeftUpLeg -8.038212 8.358252 3.058412
LeftLeg 0.574031 -0.000000 -0.000000
LeftFoot -11.871316 7.088741 -20.296171
LeftToeBase 5.634516 -0.000000 -0.000000
RightUpLeg -10.704785 -2.226780 1.572199
RightLeg 5.932474 -0.000000 -0.000000
RightFoot -10.909328 -0.694961 -5.759597
RightToeBase -0.580546 -0.000000 0.000000
7
root -2.986757 32.875057 -3.649741 13.177518 -3.257135 -1.904843
Spine -11.469287 6.131076 1.746095
Head -12.008930 -5.778721 8.412031
LeftShoulder -11.686157 27.302038 26.271554
LeftArm 24.129867 -24.754769 -35.290829
LeftForeArm 6.398847 -0.000000 14.399072
LeftHand -31.474103 0.000000 4.468789
LeftHandThumb1 -26.253704 0.000000 33.147579
RightShoulder -15.576410 10.303671 -37.653819
RightArm -8.607591 9.393210 34.693336
RightForeArm -28.197212 -0.000000 18.271022
RightHand -10.693530 -0.000000 7.015261
RightHandThumb1 -24.326973 -0.000000 -32.862282
LeftUpLeg -8.029120 8.308178 3.106373
LeftLeg 0.543415 -0.000000 -0.000000
LeftFoot -11.904658 7.189025 -20.388405
LeftToeBase 5.676086 -0.000000 -0.000000
RightUpLeg -10.741551 -2.117755 1.600948
RightLeg 5.956450 -0.000000 -0.000000
RightFoot -10.893763 -0.687613 -5.789809
RightToeBase -0.685995 -0.000000 0.000000
8
root -3.011877 32.873435 -3.643088 13.191377 -3.302257 -1.891650
Spine -11.447711 6.080815 1.746826
Head -11.866371 -6.078989 8.578117
LeftShoulder -11.654870 27.183051 26.137964
LeftArm 24.187415 -24.883948 -35.460175
LeftForeArm 6.327860 -0.000000 14.550904
LeftHand -31.558109 -0.000000 4.552498
LeftHandThumb1 -26.253704 0.000000 33.147579
RightShoulder -15.596996 10.223937 -37.447825
RightArm -8.592763 9.229776 34.632983
RightForeArm -28.181404 -0.000000 18.261023
RightHand -10.253506 0.000000 6.938762
RightHandThumb1 -24.326973 -0.000000 -32.862282
LeftUpLeg -8.006585 8.293429 3.135882
LeftLeg 0.514985 -0.000000 -0.000000
LeftFoot -11.907450 7.256855 -20.423730
LeftToeBase 5.655380 -0.000000 -0.000000
RightUpLeg -10.766992 -1.990574 1.607541
RightLeg 6.008311 -0.000000 -0.000000
RightFoot -10.941840 -0.738528 -5.850953
RightToeBase -0.669680 -0.000000 0.000000
9
root -3.035002 32.872867 -3.641057 13.243144 -3.315565 -1.872741
Spine -11.454943 6.011614 1.760166
Head -11.719526 -6.433705 8.750254
LeftShoulder -11.656465 27.281096 25.941927
LeftArm 24.366606 -25.042456 -35.663468
LeftForeArm 6.027481 -0.000000 14.780432
LeftHand -31.530288 -0.000000 4.869151
LeftHandThumb1 -26.253704 0.000000 33.147579
RightShoulder -15.655538 10.096284 -37.309576
RightArm -8.598449 9.038027 34.690449
RightForeArm -28.207576 -0.000000 18.409730
RightHand -10.283086 -0.000000 6.639482
RightHandThumb1 -24.326973 -0.000000 -32.862282
LeftUpLeg -8.040853 8.217909 3.160559
LeftLeg 0.497680 -0.000000 -0.000000
LeftFoot -11.921916 7.335679 -20.521954
LeftToeBase 5.657791 -0.000000 -0.000000
RightUpLeg -10.837262 -1.899207 1.609631
RightLeg 6.060465 -0.000000 -0.000000
RightFoot -10.977353 -0.754833 -5.889156
RightToeBase -0.679800 -0.000000 0.000000
10
root -3.055164 32.872779 -3.640360 13.313843 -3.362979 -1.865322
Spine -11.489411 5.925014 1.798224
Head -11.538360 -6.818653 8.956475
LeftShoulder -11.692580 27.432254 25.731286
LeftArm 24.599855 -25.278887 -36.010277
LeftForeArm 5.927646 -0.000000 15.026886
LeftHand -31.593938 -0.000000 5.286473
LeftHandThumb1 -26.253704 0.000000 33.147579
RightShoulder -15.640629 10.086772 -37.156747
RightArm -8.707243 8.854793 34.702272
RightForeArm -28.228753 -0.000000 18.643460
RightHand -10.510952 -0.000000 6.853165
RightHandThumb1 -24.326973 -0.000000 -32.862282
LeftUpLeg -8.098099 8.190344 3.176417
LeftLeg 0.493822 -0.000000 -0.000000
LeftFoot -11.962846 7.433420 -20.585438
LeftToeBase 5.726994 -0.000000 -0.000000
RightUpLeg -10.931671 -1.739949 1.606083
RightLeg 6.112322 -0.000000 -0.000000
RightFoot -10.994414 -0.805915 -5.914155
RightToeBase -0.729852 -0.000000 0.000000
11
root -3.080283 32.872619 -3.638084 13.364617 -3.418257 -1.864817
Spine -11.478784 5.880289 1.836728
Head -11.413177 -7.229446 9.117183
LeftShoulder -11.686556 27.329639 25.553564
LeftArm 24.648543 -25.217135 -36.242784
LeftForeArm 5.790485 -0.000000 15.355329
LeftHand -31.623280 -0.000000 5.807921
LeftHandThumb1 -26.253704 0.000000 33.147579
RightShoulder -15.693761 9.942470 -36.993291
RightArm -8.723208 8.604590 34.787205
RightForeArm -28.124721 -0.000000 18.789346
RightHand -10.221226 -0.000000 6.278815
RightHandThumb1 -24.326973 -0.000000 -32.862282
LeftUpLeg -8.122277 8.193525 3.209995
LeftLeg 0.472375 -0.000000 -0.000000
LeftFoot -11.970943 7.502619 -20.636611
LeftToeBase 5.758410 -0.000000 -0.000000
RightUpLeg -11.009491 -1.563803 1.610084
RightLeg 6.183466 -0.000000 -0.000000
RightFoot -11.022251 -0.835277 -5.896182
RightToeBase -0.735992 -0.000000 0.000000
